<?xml version="1.0" standalone="no"?>
<!DOCTYPE svg PUBLIC "-//W3C//DTD SVG 20010904//EN"
 "http://www.w3.org/TR/2001/REC-SVG-20010904/DTD/svg10.dtd">
<svg version="1.0" xmlns="http://www.w3.org/2000/svg"
 width="494.000000pt" height="494.000000pt" viewBox="0 0 494.000000 494.000000"
 preserveAspectRatio="xMidYMid meet">
<metadata>
Created by potrace 1.14, written by Peter Selinger 2001-2017
</metadata>
<g transform="translate(0.000000,494.000000) scale(0.100000,-0.100000)"
fill="#000000" stroke="none">
<path d="M1700 4689 c-32 -13 -59 -38 -76 -70 -13 -26 -16 -37 -29 -129 -4
-25 -8 -56 -10 -70 -2 -14 -7 -47 -10 -75 -6 -49 -49 -371 -60 -449 -3 -21
-15 -107 -25 -190 -11 -83 -23 -167 -26 -186 -6 -44 -33 -242 -40 -295 -2 -22
-7 -51 -9 -65 -3 -14 -7 -50 -10 -80 -3 -30 -10 -82 -15 -115 -5 -33 -12 -84
-15 -114 -4 -30 -8 -61 -10 -70 -3 -17 -14 -103 -19 -153 -4 -36 32 -98 70
-120 30 -18 88 -31 189 -43 28 -3 61 -8 75 -10 14 -2 63 -9 110 -15 47 -6 101
-13 120 -16 50 -7 247 -34 300 -40 24 -3 48 -6 53 -7 5 -1 51 142 103 318 52
176 104 339 115 362 37 76 132 154 209 170 71 15 120 9 258 -30 38 -10 55 -11
57 -3 4 12 22 133 30 211 3 28 8 61 10 75 2 14 7 45 10 70 3 25 8 56 10 70 2
14 7 50 10 80 4 30 8 66 10 80 2 14 9 63 15 110 6 47 13 96 15 110 3 22 18
128 31 225 6 43 16 126 18 150 6 57 -60 140 -118 150 -33 5 -304 42 -371 51
-22 2 -51 7 -65 9 -14 2 -47 7 -75 10 -91 11 -120 15 -155 20 -109 15 -329 46
-356 50 -17 2 -57 7 -90 11 -32 3 -61 7 -64 9 -16 9 -149 13 -170 4z m730
-359 c235 -67 359 -195 365 -378 3 -80 -19 -183 -55 -251 -33 -63 -108 -138
-188 -188 -42 -26 -78 -51 -80 -55 -2 -5 -8 -8 -14 -8 -19 0 -124 -88 -150
-127 -33 -46 -49 -114 -38 -154 8 -27 -1 -46 -17 -36 -5 3 -28 8 -53 11 -108
15 -207 33 -218 40 -20 12 -8 153 17 211 40 90 106 161 223 238 166 110 198
152 199 266 1 33 -6 51 -28 79 -49 60 -92 76 -208 76 -106 0 -164 -14 -258
-61 -27 -13 -51 -23 -52 -21 -2 2 1 24 6 48 6 25 12 61 14 80 3 19 6 44 9 55
6 34 22 122 24 142 2 13 83 40 147 50 22 3 42 7 44 9 13 13 244 -7 311 -26z
m-265 -1313 c95 -37 138 -92 139 -177 1 -144 -123 -223 -281 -179 -51 14 -108
65 -129 115 -17 40 -16 104 0 144 16 36 74 89 110 99 44 13 126 12 161 -2z"/>
<path d="M2705 3055 c-16 -8 -37 -20 -45 -27 -16 -13 -47 -78 -55 -113 -3 -11
-14 -51 -26 -90 -11 -38 -27 -90 -34 -115 -7 -25 -32 -108 -55 -185 -66 -223
-91 -307 -105 -355 -42 -146 -87 -297 -92 -310 -3 -8 -7 -19 -8 -25 -3 -12
-145 -491 -185 -625 -37 -122 -40 -142 -29 -183 15 -57 62 -94 154 -122 45
-14 87 -25 93 -25 5 0 12 26 14 58 5 58 21 101 119 309 28 60 64 135 79 168
133 287 370 796 402 865 22 47 64 137 93 201 29 64 57 124 63 135 5 10 32 66
60 124 32 67 65 120 91 146 l41 41 -97 28 c-54 15 -116 33 -138 40 -128 41
-257 75 -281 75 -16 -1 -42 -7 -59 -15z"/>
<path d="M1195 2962 c-27 -5 -230 -59 -280 -74 -88 -26 -142 -94 -132 -167 5
-41 4 -37 47 -197 18 -65 43 -159 56 -209 14 -49 26 -97 28 -105 4 -14 36
-136 77 -288 11 -41 33 -124 49 -185 35 -130 55 -205 111 -412 22 -82 42 -157
44 -165 1 -8 9 -35 16 -60 17 -60 17 -62 22 -85 3 -11 12 -47 21 -80 9 -33 19
-69 22 -80 10 -37 11 -40 23 -66 25 -51 116 -83 186 -65 11 3 79 21 150 41 72
19 175 47 230 62 55 14 101 26 102 27 1 1 -13 31 -31 69 -38 78 -46 165 -22
235 8 23 13 42 11 42 -2 0 3 17 12 38 8 20 15 39 14 42 0 3 10 41 23 85 13 44
43 145 66 225 24 80 51 172 62 205 11 33 21 70 24 83 3 13 11 42 18 65 8 23
24 76 36 117 11 41 27 92 35 113 7 20 10 37 7 38 -4 0 -14 2 -22 4 -18 3 -90
14 -140 20 -31 4 -139 18 -223 30 -15 2 -64 9 -110 15 -45 6 -93 13 -107 15
-14 3 -50 7 -80 10 -145 16 -230 54 -288 130 -55 72 -72 130 -67 227 3 45 7
94 10 108 8 40 26 192 23 194 -2 1 -12 0 -23 -2z"/>
<path d="M3394 2796 c-39 -17 -65 -53 -116 -163 -56 -121 -95 -207 -131 -283
-17 -36 -32 -67 -32 -70 -1 -3 -13 -29 -28 -59 -15 -30 -27 -61 -27 -68 0 -7
-4 -13 -10 -13 -5 0 -10 -5 -10 -10 0 -10 -32 -86 -51 -122 -5 -9 -66 -140
-135 -290 -70 -150 -142 -307 -162 -348 -19 -41 -60 -131 -92 -200 -32 -69
-67 -146 -79 -171 -28 -60 -33 -105 -16 -146 13 -31 71 -93 87 -93 4 0 46 -19
95 -42 48 -24 90 -43 93 -43 5 -1 65 -29 190 -88 119 -55 231 -108 285 -132
28 -12 86 -39 130 -60 399 -187 408 -190 478 -155 49 25 59 40 185 315 33 72
79 171 102 220 23 50 53 113 65 140 12 28 86 185 163 350 77 165 151 325 165
355 14 30 43 93 65 140 65 139 121 260 121 265 0 3 7 18 16 35 44 84 -6 178
-121 226 -21 9 -90 41 -153 70 -62 30 -115 54 -116 54 -1 0 -61 27 -131 61
-71 34 -172 81 -224 104 -52 24 -187 87 -300 139 -213 100 -245 108 -306 82z"/>
<path d="M617 2549 c-11 -6 -24 -12 -30 -14 -7 -1 -29 -9 -49 -18 -20 -9 -95
-42 -165 -73 -70 -30 -136 -63 -147 -72 -25 -23 -46 -74 -46 -114 0 -38 3 -44
260 -638 105 -245 212 -492 237 -550 25 -58 58 -133 74 -168 16 -35 29 -69 29
-76 0 -6 4 -16 8 -22 5 -5 26 -49 46 -99 21 -49 48 -112 60 -140 13 -27 31
-70 41 -95 11 -25 28 -58 39 -74 25 -38 95 -68 138 -61 18 3 155 58 303 122
149 64 311 134 360 154 50 21 85 39 80 39 -6 0 -66 -15 -135 -34 -232 -63
-262 -69 -323 -62 -67 7 -143 42 -191 90 -61 59 -64 66 -173 471 -19 72 -38
146 -43 165 -5 19 -29 112 -55 205 -25 94 -47 177 -49 185 -13 50 -206 776
-223 833 -17 61 -18 62 -46 46z"/>
</g>
</svg>
